<?xml version="1.0" encoding="iso-8859-1"?>
<!-- Generator: Adobe Illustrator 19.0.0, SVG Export Plug-In . SVG Version: 6.00 Build 0)  -->
<svg version="1.1" id="Layer_1" xmlns="http://www.w3.org/2000/svg" xmlns:xlink="http://www.w3.org/1999/xlink" x="0px" y="0px"
	 viewBox="0 0 512 512" style="enable-background:new 0 0 512 512;" xml:space="preserve">
<g>
	<g>
		<path d="M495.304,0H16.696C7.475,0,0,7.475,0,16.696v478.609C0,504.525,7.475,512,16.696,512h478.609
			c9.22,0,16.696-7.475,16.696-16.696V16.696C512,7.475,504.525,0,495.304,0z M478.609,478.609H33.391V33.391h445.217V478.609z"/>
	</g>
</g>
<g>
	<g>
		<path d="M183.652,411.826h-50.087V100.174h50.087c9.22,0,16.696-7.475,16.696-16.696s-7.475-16.696-16.696-16.696H116.87
			c-9.22,0-16.696,7.475-16.696,16.696v345.043c0,9.22,7.475,16.696,16.696,16.696h66.783c9.22,0,16.696-7.475,16.696-16.696
			S192.873,411.826,183.652,411.826z"/>
	</g>
</g>
<g>
	<g>
		<path d="M395.13,66.783h-66.783c-9.22,0-16.696,7.475-16.696,16.696s7.475,16.696,16.696,16.696h50.087v311.652h-50.087
			c-9.22,0-16.696,7.475-16.696,16.696s7.475,16.696,16.696,16.696h66.783c9.22,0,16.696-7.475,16.696-16.696V83.478
			C411.826,74.258,404.351,66.783,395.13,66.783z"/>
	</g>
</g>
<g>
</g>
<g>
</g>
<g>
</g>
<g>
</g>
<g>
</g>
<g>
</g>
<g>
</g>
<g>
</g>
<g>
</g>
<g>
</g>
<g>
</g>
<g>
</g>
<g>
</g>
<g>
</g>
<g>
</g>
</svg>
