<?xml version="1.0" standalone="no"?>
<!DOCTYPE svg PUBLIC "-//W3C//DTD SVG 1.1//EN" "http://www.w3.org/Graphics/SVG/1.1/DTD/svg11.dtd" >
<svg xmlns="http://www.w3.org/2000/svg">
    <metadata></metadata>
    <defs>
        <font id="garrison_sansregular" horiz-adv-x="1024">
            <font-face units-per-em="2048" ascent="1638" descent="-410"/>
            <missing-glyph horiz-adv-x="545"/>
            <glyph horiz-adv-x="0"/>
            <glyph unicode="&#xd;" horiz-adv-x="0"/>
            <glyph unicode=" " horiz-adv-x="545"/>
            <glyph unicode="&#x09;" horiz-adv-x="545"/>
            <glyph unicode="&#xa0;" horiz-adv-x="545"/>
            <glyph unicode="!" horiz-adv-x="590"
                   d="M164 116q0 54 39 93t92 39q54 0 92.5 -39t38.5 -93q0 -53 -39 -91.5t-92 -38.5t-92 38.5t-39 91.5zM172 1032q0 348 123 348t123 -348q0 -136 -33 -334q-4 -22 -11 -65t-17.5 -106t-18.5 -113.5t-12 -75.5h-62l-14 87.5t-15.5 96.5t-16.5 94q-10 60 -13 82 q-33 197 -33 334z"/>
            <glyph unicode="&#x22;" horiz-adv-x="684" d="M98 1366h178l-26 -547h-125zM408 1366h178l-27 -547h-125z"/>
            <glyph unicode="#" horiz-adv-x="1091"
                   d="M47 471l13 86h252l32 227h-252l10 86h254l52 373h90l-54 -373h240l51 373h89l-52 -373h260l-12 -86h-260l-33 -227h260l-12 -86h-260l-55 -403h-88l54 403h-237l-57 -403h-88l57 403h-254zM400 557h239l33 227h-240z"/>
            <glyph unicode="$" horiz-adv-x="1091"
                   d="M96 1024q0 91 55 171.5t138 121.5q96 49 217 49v119h78v-121q180 -11 348 -123v-191q-164 154 -348 177v-459l49 -16q163 -54 241 -119q126 -103 126 -261q0 -108 -59 -188.5t-156 -124t-201 -47.5v-192h-78v192q-174 2 -400 125v181q198 -148 400 -170v483l-50 14 q-94 30 -156 59.5t-110 77.5q-94 97 -94 242zM258 1028q0 -168 248 -236v439q-84 0 -144 -33q-48 -26 -76 -72t-28 -98zM584 150q106 13 179 67q73 53 73 153q0 60 -31 102.5t-76 68t-111 51.5q-5 2 -10.5 4.5t-11.5 5t-12 4.5v-456z"/>
            <glyph unicode="%" horiz-adv-x="1505"
                   d="M82 1016q0 90 33.5 171t99.5 131q65 50 157 50q93 0 159.5 -50t100.5 -131t34 -171t-35 -171t-101 -130t-158 -49q-90 0 -156 49.5t-100 130t-34 170.5zM182 1014q0 -98 49 -177t141 -79q62 0 106 38t64.5 98t20.5 120q0 101 -48.5 181.5t-142.5 80.5q-93 0 -141.5 -81 t-48.5 -181zM316 33l804 1347l70 -40l-801 -1354zM840 346q0 90 33.5 172t99.5 132q65 50 157 50t159 -50t101 -132t34 -172q0 -89 -35 -170t-101 -130.5t-158 -49.5q-90 0 -156 50t-100 130t-34 170zM940 346q0 -99 49 -177.5t141 -78.5t141.5 79t49.5 177q0 62 -20.5 121 t-63.5 99t-107 40t-107 -40t-63 -99t-20 -121z"/>
            <glyph unicode="&#x26;" horiz-adv-x="1278"
                   d="M110 338q0 84 41 151.5t105 117.5q64 49 148 97q-52 61 -84 109.5t-52 106.5q-20 56 -20 122q0 82 49 152.5t127 111t160 40.5q86 0 163.5 -37t124 -105t46.5 -158q0 -110 -64 -182t-186 -152q-12 -8 -42 -26l263 -299q100 133 141 291h138q-16 -86 -70 -196 q-60 -117 -123 -191l256 -291h-195l-162 178q-96 -91 -189.5 -139.5t-209.5 -48.5q-101 0 -185 44t-132 123t-48 181zM260 342q0 -93 73 -156t169 -63q140 -1 286 153l-296 336q-102 -59 -167 -122.5t-65 -147.5zM404 1040q0 -46 20 -91t49.5 -84t71.5 -85q76 44 119.5 75 t78.5 79t35 106q0 78 -57 130t-141 52q-76 -4 -126 -54q-50 -52 -50 -128z"/>
            <glyph unicode="'" horiz-adv-x="379" d="M98 1366h182l-26 -547h-129z"/>
            <glyph unicode="(" horiz-adv-x="694"
                   d="M96 430q0 170 50 340t142 321t216 275h150q-180 -186 -271 -377q-127 -257 -127 -567q0 -304 125 -551q115 -222 273 -377h-152q-58 57 -106 113.5t-89 118.5q-41 60 -75 130q-136 277 -136 574z"/>
            <glyph unicode=")" horiz-adv-x="694"
                   d="M41 -506q58 58 113 127t100.5 143t81.5 154q102 223 102 504q0 534 -397 944h149q188 -187 298 -433t110 -503q0 -334 -166 -628q-88 -158 -240 -308h-151z"/>
            <glyph unicode="*" horiz-adv-x="1014"
                   d="M110 1016l50 152l311 -154l8 8l-47 344h156l-60 -342l19 -12l311 158l47 -154l-342 -56l-6 -14l248 -234l-127 -98l-160 304h-16l-150 -310l-131 90l240 250l-7 18z"/>
            <glyph unicode="+" d="M45 656v88h420v394h92v-394h420v-88h-420v-396h-92v396h-420z"/>
            <glyph unicode="," horiz-adv-x="508"
                   d="M100 116q0 56 42 94t98 38q74 0 120 -56t46 -130q0 -67 -35 -127.5t-93 -98.5q-70 -42 -172 -59l-2 31q50 29 83.5 74.5t33.5 97.5l-10 2q-111 30 -111 134z"/>
            <glyph unicode="-" horiz-adv-x="530" d="M0 422v146h530v-146h-530z"/>
            <glyph unicode="." horiz-adv-x="508"
                   d="M123 116q0 54 38.5 93t92.5 39t92.5 -39t38.5 -93q0 -53 -39 -91.5t-92 -38.5q-35 0 -65.5 17.5t-48 47.5t-17.5 65z"/>
            <glyph unicode="/" horiz-adv-x="1206" d="M-108 -459l1226 1839l88 -57l-1224 -1843z"/>
            <glyph unicode="0" horiz-adv-x="1091"
                   d="M74 706q0 151 41 290.5t129 240.5q58 68 137 104.5t166 36.5q122 0 214 -61t148.5 -160.5t83.5 -217.5q27 -119 27 -233q0 -334 -138 -534q-58 -85 -147 -135.5t-188 -50.5q-100 0 -188.5 50t-147.5 136q-137 200 -137 534zM238 708q0 -264 80 -419q36 -70 97 -117 t136 -47q73 0 134 46.5t97 117.5q82 159 82 419q0 111 -30 233.5t-100.5 210t-182.5 87.5t-182.5 -87.5t-100.5 -210t-30 -233.5z"/>
            <glyph unicode="1" horiz-adv-x="1091" d="M211 1046l375 320h131v-1366h-162v1184l-297 -256z"/>
            <glyph unicode="2" horiz-adv-x="1091"
                   d="M72 0v26q196 170 418 470q54 72 97 144t73 154t30 152q0 128 -83 204.5t-209 76.5q-138 0 -292 -154v185q174 120 340 120q114 0 208 -54t146 -148t52 -210q0 -100 -46 -213t-118.5 -221t-155 -205t-166.5 -183h600v-144h-894z"/>
            <glyph unicode="3" horiz-adv-x="1091"
                   d="M186 1143v170q162 65 277 65q114 0 212.5 -43.5t157 -129t58.5 -199.5q0 -106 -60.5 -191t-160.5 -123q74 -26 126.5 -73t79.5 -113t27 -144q0 -110 -56.5 -196t-151.5 -133t-203 -47q-150 0 -302 76v168q126 -102 269 -103q74 0 138.5 29.5t103.5 85.5t39 133 q0 86 -48 143.5t-123 83.5t-161 26q-56 0 -142 -22v172q89 -18 154 -18q132 0 206 51q46 30 74 80q29 51 29 105q0 118 -94 190q-79 59 -201 59q-119 0 -248 -102z"/>
            <glyph unicode="4" horiz-adv-x="1091"
                   d="M62 482v75l686 809h82v-760h202v-124h-202v-482h-152v482h-616zM260 606h418v504z"/>
            <glyph unicode="5" horiz-adv-x="1091"
                   d="M166 68v162q122 -96 266 -97q150 0 236 86q90 88 90 215q0 91 -44 162.5t-119 110.5t-167 39q-76 0 -154 -29l35 649h573v-146h-423l-13 -374q44 8 94 8q74 0 151 -36t128 -91q109 -114 109 -297q0 -188 -138 -316q-136 -128 -334 -128q-152 0 -290 82z"/>
            <glyph unicode="6" horiz-adv-x="1091"
                   d="M162 452q0 120 40 241t107 226.5t152 192.5q129 134 342 266l117 -118q-170 -100 -294 -218q-139 -130 -237 -323q114 55 203 55q106 0 195 -50t139.5 -137t50.5 -194q-1 -173 -107 -289q-110 -118 -298 -118q-124 0 -218 64.5t-143 172t-49 229.5zM330 438 q9 -129 72.5 -213.5t185.5 -84.5q100 0 163.5 77t63.5 181q0 70 -35 125t-94 86.5t-127 31.5q-79 0 -221 -76q-8 -61 -8 -127z"/>
            <glyph unicode="7" horiz-adv-x="1091" d="M100 1222v144h908l-592 -1380l-168 30l522 1206h-670z"/>
            <glyph unicode="8" horiz-adv-x="1091"
                   d="M137 383q0 59 24 120t64.5 109t116.5 88q-82 54 -129 135t-47 177q0 100 52 184t139 133t185 49q103 0 194.5 -46.5t145.5 -129.5t54 -186q0 -98 -48 -182t-132 -134q91 -50 144.5 -133t53.5 -184q0 -112 -53.5 -203.5t-147 -142.5t-206.5 -51q-112 0 -206.5 51.5 t-149 142t-54.5 203.5zM284 383q0 -71 36 -133.5t96 -99t131 -36.5q70 0 130.5 37t95 99t34.5 133q0 68 -36.5 126t-97 92t-128.5 34t-128.5 -34t-96.5 -92t-36 -126zM312 1014q0 -64 31 -120t85.5 -89t118.5 -33q65 0 121 33t89 89t33 120t-33 119t-89.5 87t-120.5 32 q-62 0 -117 -33t-86.5 -87t-31.5 -118z"/>
            <glyph unicode="9" horiz-adv-x="1091"
                   d="M146 971q0 173 106 289q110 118 299 118q124 0 217.5 -64.5t142.5 -172t49 -229.5q0 -180 -83 -352t-215 -308q-130 -136 -342 -266l-117 118q173 102 293 218q138 129 237 323q-115 -55 -203 -55q-162 0 -273 109t-111 272zM307 966q0 -70 35 -125t94 -86.5t127 -31.5 q77 -1 221 75q8 58 8 128q-6 83 -34 149.5t-84 107.5t-140 41q-67 0 -118.5 -36t-79.5 -96q-29 -60 -29 -126z"/>
            <glyph unicode=":" horiz-adv-x="508"
                   d="M123 116q0 54 38.5 93t92.5 39t92.5 -39t38.5 -93q0 -53 -39 -91.5t-92 -38.5q-35 0 -65.5 17.5t-48 47.5t-17.5 65zM123 805q0 53 39 92t92 39t92 -39t39 -92t-39 -92t-92 -39t-92 39t-39 92z"/>
            <glyph unicode=";" horiz-adv-x="508"
                   d="M100 116q0 56 42 94t98 38q74 0 120 -56t46 -130q0 -67 -35 -127.5t-93 -98.5q-70 -42 -172 -59l-2 31q50 29 83.5 74.5t33.5 97.5l-10 2q-111 30 -111 134zM114 805q0 53 39 92t93 39t93.5 -39t39.5 -92t-39.5 -92t-93.5 -39t-93 39t-39 92z"/>
            <glyph unicode="&#x3c;" d="M68 616v144l886 420v-166l-708 -328l708 -326v-166z"/>
            <glyph unicode="=" d="M47 512v86h932v-86h-932zM47 801v86h932v-86h-932z"/>
            <glyph unicode="&#x3e;" d="M70 194v166l708 328l-708 328v164l886 -420v-146z"/>
            <glyph unicode="?" horiz-adv-x="647"
                   d="M82 1136l72 214q80 30 132 30q120 0 189 -63q90 -78 90 -217q0 -158 -106 -316l-61 -90q-80 -114 -80 -200q0 -64 44 -126l-61 -32q-86 86 -86 202q0 78 78 212q66 108 93.5 164t27.5 126q0 74 -36 127t-106 53q-106 0 -164 -96zM166 116q0 54 39 93t92 39q54 0 92.5 -39 t38.5 -93q0 -53 -39 -91.5t-92 -38.5q-35 0 -65 17.5t-48 47.5t-18 65z"/>
            <glyph unicode="@" horiz-adv-x="1411"
                   d="M60 684q0 179 94.5 331t252.5 241q159 90 335 90q123 0 234 -41t196.5 -118t133.5 -182t48 -231q0 -106 -47 -202t-129 -166q-126 -104 -258 -105q-59 0 -79 28.5t-20 78.5q-106 -114 -219 -115q-112 0 -177 86.5t-65 200.5q0 188 119 313q46 50 108 85t131 51.5 t142 16.5q75 0 172 -14l-82 -573q0 -63 52 -63q56 0 130 69q130 120 130 299q0 140 -70 249t-188 169q-118 61 -258 61q-155 0 -288.5 -77.5t-212.5 -209.5t-79 -286q0 -262 162 -424q80 -82 184 -128t215 -46q153 0 287 72q134 71 210 198h101q-50 -112 -145.5 -193 t-216.5 -123t-244 -42q-148 0 -285 68q-137 70 -231 186q-143 184 -143 446zM488 590q0 -75 41 -131.5t114 -56.5q50 0 102.5 29t88.5 71l61 430q-21 4 -65 4q-96 0 -174.5 -46.5t-123 -127t-44.5 -172.5z"/>
            <glyph unicode="A" horiz-adv-x="1345"
                   d="M10 0l590 1366h140l596 -1366h-191l-177 430h-598l-174 -430h-186zM426 551h490l-244 571z"/>
            <glyph unicode="B" horiz-adv-x="1126"
                   d="M156 0v1366h407q110 0 207 -51q78 -43 124 -127t46 -176q0 -118 -74 -205q-44 -53 -126 -92q120 -25 192 -87q116 -104 116 -286q-8 -75 -45 -142.5t-98 -115.5q-109 -84 -277 -84h-472zM328 121h160q98 0 164 9.5t120 43.5q46 32 74 84t28 108q0 76 -39 139t-108 95 q-75 35 -241 35h-158v-514zM328 750h84q172 0 246 48q54 34 83 88t29 118q0 106 -74 173.5t-182 67.5h-186v-495z"/>
            <glyph unicode="C" horiz-adv-x="1313"
                   d="M84 678q0 98 27 193t80 180t125 149q202 180 482 180q216 0 437 -110v-172q-114 66 -215.5 98.5t-216.5 32.5q-72 0 -142.5 -19.5t-133.5 -55.5t-111 -87q-74 -77 -116 -180.5t-42 -208.5q0 -150 71 -274t194 -195.5t273 -71.5q220 0 439 129v-162q-101 -58 -220 -88 t-237 -30q-196 0 -355.5 89t-249 248t-89.5 355z"/>
            <glyph unicode="D" horiz-adv-x="1442"
                   d="M156 0v1366h468q270 0 430 -104q142 -90 223 -248t81 -332q0 -120 -42 -234t-121 -208t-183 -152q-156 -88 -424 -88h-432zM328 137h210q124 0 220.5 17t177.5 67q246 156 246 461q0 96 -32 191.5t-94 172.5q-62 78 -148 124q-110 59 -329 59h-7h-244v-1092z"/>
            <glyph unicode="E" horiz-adv-x="1005" d="M156 0v1366h756v-137h-584v-469h573v-138h-573v-485h600v-137h-772z"/>
            <glyph unicode="F" horiz-adv-x="932" d="M156 0v1366h726v-137h-554v-449h508v-137h-508v-643h-172z"/>
            <glyph unicode="G" horiz-adv-x="1396"
                   d="M84 672q0 196 94.5 358.5t258 256t359.5 93.5q238 0 441 -92v-168q-233 108 -409 109q-116 0 -222 -40t-186 -120q-72 -76 -117 -178.5t-45 -204.5q0 -150 74.5 -277t203 -199.5t279.5 -72.5h5q147 0 296 61v330h-238v128h390v-574q-242 -96 -470 -96q-145 0 -274.5 51 t-228.5 144t-155 219t-56 272z"/>
            <glyph unicode="H" horiz-adv-x="1456" d="M156 0v1366h172v-604h800v604h172v-1366h-172v624h-800v-624h-172z"/>
            <glyph unicode="I" horiz-adv-x="483" d="M156 0v1366h172v-1366h-172z"/>
            <glyph unicode="J" horiz-adv-x="624"
                   d="M-16 127q86 -67 164 -67q150 0 149 194v1112h172v-1112q0 -86 -12.5 -145t-52.5 -107q-80 -94 -201 -94q-91 0 -183 43z"/>
            <glyph unicode="K" horiz-adv-x="1216"
                   d="M156 0v1366h172v-678l614 678h211l-639 -682l680 -684h-221l-645 672v-672h-172z"/>
            <glyph unicode="L" horiz-adv-x="985" d="M156 0v1366h172v-1229h620v-137h-792z"/>
            <glyph unicode="M" horiz-adv-x="1564"
                   d="M156 0v1366h176l450 -600l468 600h159v-1366h-172v1106l-455 -588l-454 590v-1108h-172z"/>
            <glyph unicode="N" horiz-adv-x="1544"
                   d="M156 0v1366h137l925 -1092v1092h170v-1366h-143l-917 1073v-1073h-172z"/>
            <glyph unicode="O" horiz-adv-x="1546"
                   d="M84 690q0 186 92 345.5t250.5 252t345.5 92.5q188 0 347 -92.5t251 -252t92 -345.5q0 -144 -52 -272t-146.5 -226t-221.5 -152t-270 -54q-192 0 -349.5 94.5t-248 256t-90.5 353.5zM258 666q0 -140 69 -262t188 -194.5t259 -72.5t258 72t186 194q68 123 68 263 q0 239 -139 395q-152 168 -373 168q-108 0 -205 -43.5t-169 -124.5q-142 -155 -142 -395z"/>
            <glyph unicode="P" horiz-adv-x="1071"
                   d="M156 0v1366h382q194 0 308 -68q81 -48 126.5 -131t45.5 -178q0 -67 -23 -129.5t-66 -112t-103 -83.5q-57 -31 -123.5 -40.5t-160.5 -9.5h-214v-614h-172zM328 735h170h55q120 0 178 35q54 31 83.5 90t29.5 125q0 149 -106 217q-62 43 -206 43h-204v-510z"/>
            <glyph unicode="Q" horiz-adv-x="1546"
                   d="M84 688q0 186 92 346t251 253t345 93q187 0 346.5 -93t251.5 -253t92 -346q0 -116 -34.5 -223.5t-100 -199t-157.5 -157.5q-94 -65 -206 -98q190 -78 324 -86q92 0 184 58l21 -25l-164 -170q-223 3 -401 71q-114 44 -244 132q-174 22 -311 121t-213 251.5t-76 325.5z M258 664q0 -140 69 -262t187.5 -193.5t259.5 -71.5q140 0 258 71.5t186 193.5t68 262q0 238 -139 395q-152 168 -373 168q-108 0 -205 -43.5t-169 -124.5q-142 -155 -142 -395z"/>
            <glyph unicode="R" horiz-adv-x="1231"
                   d="M156 0v1366h420q156 0 262 -70q70 -47 111.5 -121t41.5 -155q0 -149 -90 -248q-57 -60 -153 -88q52 -28 87 -72t83 -120l300 -492h-188l-250 408q-56 92 -87 135t-80 72.5t-121 29.5h-164v-645h-172zM328 754h154q158 0 228 53q50 36 78.5 91.5t28.5 119.5 q0 54 -27.5 103t-72.5 81q-63 43 -183 43h-206v-491z"/>
            <glyph unicode="S" horiz-adv-x="944"
                   d="M104 1024q0 77 31 142.5t85 113.5t123 74t145 26q162 0 317 -106v-172q-143 135 -301 135q-63 0 -117.5 -30.5t-86.5 -83.5t-32 -115q0 -52 23.5 -93t62 -72t90.5 -57l88 -44q122 -66 181.5 -106.5t100 -110t40.5 -177.5q0 -114 -58 -196t-154.5 -124t-207.5 -42 q-152 0 -315 110v174q162 -141 319 -141h2q64 0 121.5 27.5t92.5 79.5q34 50 34 116q0 73 -39 125t-87 80.5t-146 77.5q-144 69 -195 113q-117 96 -117 276z"/>
            <glyph unicode="T" horiz-adv-x="1136" d="M16 1229v137h1104v-137h-468v-1229h-170v1229h-466z"/>
            <glyph unicode="U" horiz-adv-x="1466"
                   d="M156 622v744h172v-698q0 -122 11 -202t54 -152q51 -82 143 -129.5t193 -47.5q114 0 210.5 54t148.5 151q50 104 50 346v678h172v-772q0 -266 -128 -416q-80 -94 -199 -143t-250 -49q-92 0 -183.5 27t-167.5 80t-128 128q-98 143 -98 401z"/>
            <glyph unicode="V" horiz-adv-x="1249" d="M20 1366h193l418 -1061l426 1061h170l-551 -1366h-100z"/>
            <glyph unicode="W" horiz-adv-x="2107"
                   d="M22 1366h183l399 -1057l392 1057h120l396 -1044l390 1044h185l-525 -1366h-94l-411 1067l-401 -1067h-101z"/>
            <glyph unicode="X" horiz-adv-x="1429"
                   d="M8 0l598 700l-569 666h229l453 -534l449 534h210l-559 -656l603 -710h-222l-494 576l-487 -576h-211z"/>
            <glyph unicode="Y" horiz-adv-x="1206" d="M12 1366h220l372 -502l371 502h221l-506 -649v-717h-172v717z"/>
            <glyph unicode="Z" horiz-adv-x="1296" d="M41 0l901 1214h-836v152h1148l-890 -1214h873v-152h-1196z"/>
            <glyph unicode="[" horiz-adv-x="557" d="M164 -506v1872h324v-104h-156v-1664h156v-104h-324z"/>
            <glyph unicode="\" horiz-adv-x="1206" d="M0 1323l88 57l1227 -1839l-91 -61z"/>
            <glyph unicode="]" horiz-adv-x="557" d="M70 -402h158v1664h-158v104h323v-1872h-323v104z"/>
            <glyph unicode="^" d="M64 764l354 604h188l356 -604h-157l-293 492l-293 -492h-155z"/>
            <glyph unicode="_" d="M-20 -146h1064v-108h-1064v108z"/>
            <glyph unicode="`" d="M256 1321h190l185 -301h-117z"/>
            <glyph unicode="a" horiz-adv-x="891"
                   d="M90 221q0 74 43 138.5t111 99.5t142 52t175 27l41 7v75q0 86 -37 128q-47 53 -130 53h-3h-2q-146 0 -295 -141v149q165 127 313 127q76 0 144 -27t108 -81q50 -67 50 -187v-461q0 -30 6 -46q6 -15 32 -15q14 0 32 10.5t34 24.5t22 18l-18 -116q-97 -68 -166 -68 q-72 0 -80 98q-138 -100 -260 -100q-108 0 -185 64.5t-77 170.5zM234 232q0 -66 46 -105t113 -39q98 0 203 76v295q-140 -13 -209 -41q-62 -24 -107.5 -74t-45.5 -112z"/>
            <glyph unicode="b" horiz-adv-x="1034"
                   d="M129 26v1344h151v-557q130 123 256 123q92 0 171 -37t136 -100.5t88 -148t31 -173.5q0 -90 -31 -179q-31 -88 -87 -154q-62 -72 -158 -115t-192 -43q-84 0 -158 9t-207 31zM280 154q84 -32 168 -33q100 0 181.5 43.5t127.5 122t46 180.5q0 95 -35 171t-103.5 119.5 t-164.5 43.5q-57 0 -106.5 -28.5t-113.5 -82.5v-536z"/>
            <glyph unicode="c" horiz-adv-x="827"
                   d="M74 475q0 128 60.5 233.5t166 166.5t233.5 61q114 0 228 -47v-139q-107 51 -205 51h-4q-86 0 -160.5 -42.5t-116.5 -115.5t-42 -161q0 -166 86 -261q44 -48 103 -74t122 -26q108 0 233 55v-139q-124 -51 -252 -51q-98 0 -182 38t-145 107.5t-93 158t-32 185.5z"/>
            <glyph unicode="d" horiz-adv-x="1034"
                   d="M74 479q0 120 65 226t172 168.5t225 62.5q108 0 218 -60v494h151v-1370h-151v37q-108 -51 -230 -51q-83 0 -164 34t-143 94q-143 142 -143 365zM234 473q0 -101 39.5 -181t117 -125.5t189.5 -45.5q76 0 174 55v564q-118 61 -202 61h-3q-88 0 -160.5 -45.5t-113.5 -121 t-41 -161.5z"/>
            <glyph unicode="e" horiz-adv-x="946"
                   d="M74 488q0 112 53 215.5t147 168t205 64.5q112 0 208.5 -55t146.5 -152q44 -87 44 -245h-650q2 -100 36.5 -183t105 -131.5t172.5 -48.5q156 0 318 98v-129q-162 -104 -346 -104q-138 0 -237 68t-151 184t-52 250zM240 578h491q-6 108 -69 174q-62 65 -170 65 q-64 0 -119 -33t-90 -88.5t-43 -117.5z"/>
            <glyph unicode="f" horiz-adv-x="538"
                   d="M35 786v113h155v69q0 156 40 244q37 89 113.5 133.5t176.5 44.5q60 0 150 -26v-135q-78 27 -125 27q-118 0 -160.5 -76.5t-42.5 -204.5v-76h170v-113h-168v-786h-154v786h-155z"/>
            <glyph unicode="g" horiz-adv-x="884"
                   d="M39 -226q0 190 260 232q-54 18 -93.5 53t-39.5 83q0 92 166 140q-72 26 -123.5 71t-79 107t-27.5 138q0 88 50 165t128 117q86 44 202 44h388v-100l-204 4q118 -86 118 -228q0 -133 -84 -223q-67 -67 -196 -107l-62 -20q-53 -16 -87.5 -34t-34.5 -54q0 -50 52 -68 t128 -26q96 -15 151 -28.5t105 -49.5q106 -80 106 -182q0 -62 -32 -121t-84 -95q-120 -84 -306 -84q-152 0 -276.5 65t-124.5 201zM180 -223q0 -84 81.5 -125t174.5 -41q134 0 203 41q34 22 56 56.5t22 74.5q0 94 -85.5 132t-195.5 38q-97 0 -176.5 -43.5t-79.5 -132.5z M240 602q0 -56 27.5 -106t76 -79.5t104.5 -29.5q55 0 101.5 29.5t73 77.5t26.5 104q0 83 -60.5 143t-144.5 60q-82 0 -143 -58.5t-61 -140.5z"/>
            <glyph unicode="h" horiz-adv-x="1016"
                   d="M127 0v1370h155v-602q110 168 279 168q91 0 165 -43t114 -123q47 -86 47 -259v-7v-504h-154v496q-1 142 -39 204q-26 44 -72 69t-98 25q-144 0 -246 -157v-637h-151z"/>
            <glyph unicode="i" horiz-adv-x="409"
                   d="M108 1170q0 38 29 66t68 28q40 0 68 -28t28 -68t-28 -68.5t-66 -28.5q-40 0 -69.5 29.5t-29.5 69.5zM129 0v924h151v-924h-151z"/>
            <glyph unicode="j" horiz-adv-x="409"
                   d="M-62 -360q110 8 149.5 60.5t39.5 168.5v1055h153v-1057q0 -339 -280 -361zM108 1170q0 39 29 66.5t70 27.5q39 0 67.5 -28t28.5 -68t-28.5 -68.5t-67.5 -28.5q-40 0 -69.5 29.5t-29.5 69.5z"/>
            <glyph unicode="k" horiz-adv-x="1005"
                   d="M129 0v1370h151v-868l447 422h201l-465 -440l555 -484h-215l-523 456v-456h-151z"/>
            <glyph unicode="l" horiz-adv-x="409" d="M129 0v1370h151v-1370h-151z"/>
            <glyph unicode="m" horiz-adv-x="1562"
                   d="M127 0v924h151l-2 -121q69 64 129 99q59 34 131 34q188 0 275 -172q69 82 138 127t157 45q91 0 169.5 -44t116.5 -124q42 -84 42 -221v-547h-154v522q0 76 -12 128t-52 90q-58 54 -153 54q-108 0 -211 -114v-680h-154v526q0 73 -10.5 122.5t-48.5 86.5q-55 59 -149 59 q-112 0 -212 -114v-680h-151z"/>
            <glyph unicode="n" horiz-adv-x="1005"
                   d="M127 0v924h151v-156q63 80 130.5 124t154.5 44q82 0 156 -39q75 -39 115 -109q29 -50 35.5 -104.5t6.5 -136.5v-547h-153v551q0 66 -10.5 111.5t-44.5 77.5q-58 54 -152 54q-142 0 -238 -153v-641h-151z"/>
            <glyph unicode="o" horiz-adv-x="1081"
                   d="M74 463q0 126 62 235.5t169 173.5t235 64q126 0 234 -65t171 -174t63 -234q0 -128 -62 -237.5t-170 -174.5t-236 -65t-235 65t-169 174.5t-62 237.5zM234 467q0 -86 39 -166.5t109 -130.5q70 -49 158 -49t159 49.5t111 129.5t40 167q0 86 -40 163.5t-112 123.5 q-72 47 -158 47t-156 -46.5t-110 -124t-40 -163.5z"/>
            <glyph unicode="p" horiz-adv-x="1028"
                   d="M129 -494v1418h151v-62q116 76 216 76q135 0 239.5 -65t161.5 -177t57 -246q0 -127 -61 -233.5t-167 -167.5t-232 -61q-104 0 -214 61v-543h-151zM280 182q98 -61 182 -61h3q86 0 163 43.5t122.5 118.5t45.5 163q0 99 -40 180.5t-116 129t-177 47.5h-3q-84 0 -180 -49 v-572z"/>
            <glyph unicode="q" horiz-adv-x="1030"
                   d="M74 467q0 127 61 235.5t168 172t233 63.5q120 0 214 -49v35h151v-1418h-151v539q-120 -57 -236 -57q-90 0 -173 36t-145 103q-122 134 -122 340zM234 465q0 -96 41 -175t117 -124t173 -45q87 0 185 49v586q-86 47 -176 47h-4q-91 0 -168.5 -46.5t-122.5 -124t-45 -167.5z "/>
            <glyph unicode="r" horiz-adv-x="770"
                   d="M129 0v924h153l-4 -234l40 54q70 94 124 143q56 49 134 49q109 0 200 -102l-86 -146q-76 92 -156 92q-62 0 -120 -54.5t-94 -133t-36 -136.5v-456h-155z"/>
            <glyph unicode="s" horiz-adv-x="719"
                   d="M72 74v160q52 -52 122 -87t134 -35q68 0 123 33t55 97q0 68 -44 100q-42 32 -138 78q-77 38 -124.5 69t-80.5 80.5t-33 120.5q0 70 45 126.5t116 88t140 31.5q124 0 244 -62v-143q-101 82 -215 82q-66 0 -118 -29.5t-52 -91.5q0 -30 16 -55t42 -44t58 -35l60 -30 q80 -40 129 -73t81 -85t32 -126q0 -81 -45 -139.5t-116 -88.5t-151 -30q-126 0 -280 88z"/>
            <glyph unicode="t" horiz-adv-x="624"
                   d="M4 803l318 395v-282h262v-113h-262v-514q0 -82 26 -125t104 -43q80 0 154 47v-135q-94 -47 -186 -47q-147 0 -213 100q-37 56 -37 182v535h-166z"/>
            <glyph unicode="u" horiz-adv-x="1007"
                   d="M129 350v572h151v-522q0 -120 34 -179q26 -44 71 -68t97 -24q74 0 142 40.5t103 106.5v646h151v-922h-151l4 160q-50 -78 -125.5 -126t-163.5 -48q-102 0 -173 49t-105.5 132t-34.5 183z"/>
            <glyph unicode="v" horiz-adv-x="899" d="M14 924h152l284 -703l292 703h142l-386 -924h-109z"/>
            <glyph unicode="w" horiz-adv-x="1433"
                   d="M14 924h156l262 -670l220 670h124l228 -670l268 670h148l-366 -924h-86l-262 721l-241 -721h-86z"/>
            <glyph unicode="x" horiz-adv-x="1011"
                   d="M12 0l408 475l-385 449h174l299 -346l299 346h170l-387 -449l408 -475h-185l-313 368l-314 -368h-174z"/>
            <glyph unicode="y" horiz-adv-x="915"
                   d="M14 -488l354 682l-348 730h162l270 -564l300 564h149l-731 -1412h-156z"/>
            <glyph unicode="z" horiz-adv-x="882" d="M10 0l590 792h-544v132h818l-596 -795h578v-129h-846z"/>
            <glyph unicode="{" horiz-adv-x="776"
                   d="M140 442v128q66 20 91 66.5t25 121.5v356q0 146 66 211q44 44 107 55.5t157 11.5q18 0 28 -2v-145q-108 -4 -150 -43.5t-42 -147.5v-319q0 -88 -22.5 -141.5t-90.5 -89.5q66 -36 89.5 -94t23.5 -144v-311q0 -78 18 -119.5t59 -58.5t115 -19v-141h-30q-138 1 -188 19 q-140 53 -140 286v326q0 80 -24 127q-22 47 -92 67z"/>
            <glyph unicode="|" d="M430 -342v1706h166v-1706h-166z"/>
            <glyph unicode="}" horiz-adv-x="776"
                   d="M150 -236q108 3 151 42t43 147v321q0 89 22 142.5t90 89.5q-66 35 -89 92.5t-23 145.5v310q0 112 -42 153t-152 45v138h30q140 0 190 -18q138 -52 138 -284v-326q0 -80 24 -128t92 -69v-127q-66 -19 -91 -65.5t-25 -122.5v-356q0 -142 -64 -210q-44 -44 -107 -55.5 t-157 -11.5h-30v147z"/>
            <glyph unicode="~"
                   d="M98 624q6 87 52.5 159.5t138.5 72.5q56 0 106 -13t166.5 -48t144.5 -35q64 0 92 92h114q-50 -240 -208 -240q-48 0 -101 13t-126.5 37t-113 35t-72.5 11q-54 0 -78 -84h-115z"/>
            <glyph unicode="&#xa1;" horiz-adv-x="590"
                   d="M164 805q0 54 39 93.5t92 39.5t92 -39.5t39 -93.5q0 -53 -39 -92t-92 -39t-92 39t-39 92zM172 -110q0 126 35 336q6 38 16 101t25 156t16 101h64q6 -40 24.5 -156t32.5 -202q33 -198 33 -336q0 -346 -123 -346t-123 346z"/>
            <glyph unicode="&#xa2;" horiz-adv-x="1091"
                   d="M194 708q0 108 51.5 212t137.5 168q88 62 209 76v178h78v-176q102 0 202 -46v-133q-92 47 -202 51v-684q110 2 227 56v-140q-95 -42 -227 -42v-187h-78v189q-152 19 -252 116q-146 140 -146 362zM346 712q0 -127 63 -224.5t183 -125.5v666q-112 -26 -179 -112t-67 -204z "/>
            <glyph unicode="&#xa3;" horiz-adv-x="1091"
                   d="M110 -14l166 620h-166v123h202q46 161 90 272t112 203q60 79 148 126.5t184 47.5q26 0 82 -8l63 -162q-79 24 -121 25q-110 0 -188 -80.5t-124 -185.5t-87 -238h201v-123h-238l-120 -466q18 2 45.5 6t65 8t65.5 4q58 0 177 -19.5t146 -19.5q89 0 181 57l-11 -150 q-101 -40 -189 -40q-18 0 -160 18t-218 18q-104 0 -306 -36z"/>
            <glyph unicode="&#xa4;" horiz-adv-x="1411"
                   d="M133 1178l90 90l195 -195q76 50 143 75.5t147 25.5q132 0 283 -101l195 193l88 -88l-192 -193q102 -141 102 -287q0 -134 -98 -284l192 -191l-88 -90l-192 191q-136 -100 -294 -101q-130 1 -288 101l-190 -191l-89 90l189 191q-98 130 -98 286q0 130 100 285zM375 698 q0 -88 45 -164t121.5 -121t164.5 -45t164 45t121 122t45 163q0 88 -44 165t-121 123t-165 46q-89 0 -165 -45.5t-121 -123t-45 -165.5z"/>
            <glyph unicode="&#xa5;" horiz-adv-x="1208"
                   d="M30 1362h183l389 -676l394 680h184l-279 -461h258v-73h-301l-150 -248h376v-76h-398v-508h-170v508h-372v76h354l-150 248h-299v73h256z"/>
            <glyph unicode="&#xa6;" d="M430 314h166v-656h-166v656zM430 678v686h166v-686h-166z"/>
            <glyph unicode="&#xa7;" horiz-adv-x="1038"
                   d="M150 500q0 89 53 152.5t151 133.5q-76 72 -115 136.5t-39 142.5q0 82 45 155t120 115.5t157 42.5q77 0 149.5 -36t117.5 -100t45 -142q0 -27 -2 -39h-132v31q0 174 -178 174q-74 0 -130 -50t-56 -122q0 -38 13 -69t36 -58.5t53 -54.5t62 -54q114 -100 242 -202 q74 -60 116.5 -119t42.5 -133q-1 -172 -207 -294q80 -64 120 -134q40 -68 40 -160q0 -86 -47 -158t-124 -113t-163 -41q-81 0 -153.5 35t-117 99.5t-44.5 146.5v33h135q0 -86 32 -125q56 -65 150 -65q80 0 139.5 48t59.5 128q1 70 -61 134q-70 74 -246 216q-8 7 -77 60.5 t-106 92.5t-59 86t-22 107zM289 524q0 -48 29 -86q30 -38 82 -80l120 -100t92 -76q150 97 150 207q0 62 -78 121q-26 22 -67 57t-75 63l-102 85q-58 -36 -104.5 -87.5t-46.5 -103.5z"/>
            <glyph unicode="&#xa8;"
                   d="M244 1172q0 40 30 69t70 29q42 0 72 -28t30 -70t-30 -71.5t-72 -29.5q-40 0 -70 29.5t-30 71.5zM578 1172q0 39 29 68.5t69 29.5q42 0 73 -29t31 -69q0 -42 -31.5 -71.5t-72.5 -29.5q-40 0 -69 30.5t-29 70.5z"/>
            <glyph unicode="&#xa9;" horiz-adv-x="1601"
                   d="M94 682q0 190 95 353t258.5 258t353.5 95t352.5 -95t257.5 -258.5t95 -352.5t-95 -352.5t-257 -258.5t-353 -95q-190 0 -353 95t-258.5 257.5t-95.5 353.5zM200 682q0 -162 81 -301.5t219 -222t301 -82.5q162 0 299 83t216.5 222.5t79.5 300.5q0 162 -79.5 302 t-216.5 222t-299 82q-163 0 -301 -82t-219 -221.5t-81 -302.5zM398 684q0 190 140 322q126 110 298 110q132 0 268 -70v-104q-140 80 -266 80q-139 0 -238 -98q-96 -102 -96 -240q0 -91 43 -167.5t119 -120.5t168 -44q134 0 270 80v-100q-130 -72 -280 -72q-122 0 -219 55 t-152 152t-55 217z"/>
            <glyph unicode="&#xaa;" horiz-adv-x="710"
                   d="M68 584v96h600v-96h-600zM76 932q0 46 31 86t81 64q78 36 234 50l30 4v50q0 54 -28 80q-34 34 -96 34q-106 0 -220 -90v94q125 82 232 82q124 0 184 -69q34 -42 35 -119v-293q0 -39 29 -39q12 0 24.5 6.5t23.5 13.5q12 8 18 13l-15 -73q-74 -44 -121 -44q-52 0 -59 64 q-101 -64 -191 -64q-79 0 -135.5 41t-56.5 109zM182 938q0 -41 33.5 -66.5t83.5 -25.5q67 0 147 49v187q-108 -10 -151 -25q-46 -14 -79.5 -47t-33.5 -72z"/>
            <glyph unicode="&#xab;" horiz-adv-x="1011"
                   d="M68 484l356 432l125 -25l-342 -407l344 -424l-131 -23zM444 484l357 432l129 -25l-346 -407l344 -424l-130 -23z"/>
            <glyph unicode="&#xac;" d="M68 422v148h886v-570h-162v422h-724z"/>
            <glyph unicode="&#xad;" horiz-adv-x="530" d="M0 422v146h530v-146h-530z"/>
            <glyph unicode="&#xae;" horiz-adv-x="1601"
                   d="M94 682q0 190 95 353t258.5 258t353.5 95q142 0 270.5 -55t226.5 -152t153 -227t55 -272q0 -189 -95 -352.5t-257 -258.5t-353 -95q-190 0 -353.5 95t-258.5 258t-95 353zM200 682q0 -162 81 -301.5t219 -222t301 -82.5q162 0 299 83t216.5 222.5t79.5 300.5 q0 162 -79.5 302t-216.5 222t-299 82q-163 0 -301 -82t-219 -221.5t-81 -302.5zM524 266v866h264q98 0 166 -44q44 -30 71 -76t27 -98q0 -94 -56 -158q-36 -38 -97 -56q32 -17 54 -45q23 -27 53 -77l190 -312h-119l-157 258q-51 84 -84.5 118t-97.5 34h-105v-410h-109z M633 744h96q101 0 145 34q68 48 68 134q0 71 -64 116q-38 26 -114 26h-131v-310z"/>
            <glyph unicode="&#xaf;" d="M240 1108v123h544v-123h-544z"/>
            <glyph unicode="&#xb0;"
                   d="M221 1061q0 80 38.5 149t105.5 109.5t147 40.5q78 0 145 -40t106.5 -108.5t39.5 -146.5q0 -77 -39.5 -144t-107 -106t-144.5 -39q-76 0 -143 39t-107.5 104t-40.5 142zM299 1063q0 -54 29.5 -103.5t78.5 -78.5t103 -29q88 0 151.5 63.5t63.5 151.5q0 56 -29 105.5 t-78 79.5t-106 30q-58 0 -107 -30t-77.5 -81t-28.5 -108z"/>
            <glyph unicode="&#xb1;"
                   d="M47 110v88h932v-88h-932zM47 678v88h420v395h92v-395h420v-88h-420v-387h-92v387h-420z"/>
            <glyph unicode="&#xb2;" horiz-adv-x="710"
                   d="M62 547v21q122 104 256 280q120 158 120 266q0 72 -50.5 117t-123.5 45q-80 0 -182 -98v122q108 74 213 74q68 0 125.5 -33t91 -90t33.5 -127q0 -194 -289 -483h360v-94h-554z"/>
            <glyph unicode="&#xb3;" horiz-adv-x="710"
                   d="M133 1222v111q91 41 174 41q108 0 186.5 -60t78.5 -165q0 -60 -36 -112.5t-92 -74.5q62 -20 98 -74t36 -120t-36 -119t-95 -82t-123 -29q-90 0 -189 48v110q80 -66 168 -65q66 0 116 38.5t50 104.5q0 74 -58.5 110t-138.5 36q-34 0 -90 -12v112q44 -12 96 -12 q74 0 130.5 33.5t56.5 101.5q0 69 -52.5 106t-123.5 37q-74 0 -156 -64z"/>
            <glyph unicode="&#xb4;" d="M326 1020l184 301h190l-256 -301h-118z"/>
            <glyph unicode="&#xb5;" horiz-adv-x="1102"
                   d="M129 -340v1321h153v-553q0 -84 12.5 -141t55.5 -103q76 -86 197 -86q62 0 118.5 31t92.5 86q63 99 63 231v535h154v-981h-154v188q-35 -86 -79 -130q-84 -80 -200 -80q-168 0 -260 147v-465h-153z"/>
            <glyph unicode="&#xb6;" horiz-adv-x="1138"
                   d="M60 1002q0 96 46 180.5t126 130.5q96 53 272 53h485v-94h-119v-1504h-112v1504h-178v-1504h-111v875q-149 -1 -241 53q-80 46 -124 128q-44 84 -44 178z"/>
            <glyph unicode="&#xb8;"
                   d="M340 -346l20 64q62 -24 115 -25q46 0 81.5 18.5t35.5 60.5q0 28 -28 45t-60 17q-22 0 -54 -16l-22 18l70 164h94l-47 -104q55 0 97 -32t42 -85q0 -69 -54.5 -113.5t-125.5 -44.5q-70 0 -164 33z"/>
            <glyph unicode="&#xb9;" horiz-adv-x="710" d="M146 1174l231 192h86v-819h-107v698l-178 -149z"/>
            <glyph unicode="&#xba;" horiz-adv-x="710"
                   d="M51 1086q0 82 40.5 153t110.5 112t152 41q81 0 150.5 -42t110.5 -112t41 -152t-40.5 -153.5t-110 -114t-151.5 -42.5t-152 42.5t-110.5 114t-40.5 153.5zM56 584v96h600v-96h-600zM156 1090q0 -88 56 -157t142 -69q85 0 142 69t57 157q0 55 -25.5 104.5t-71.5 79.5 t-102 30q-57 0 -102 -30t-70.5 -79.5t-25.5 -104.5z"/>
            <glyph unicode="&#xbb;" horiz-adv-x="1011"
                   d="M82 891l129 25l357 -432l-355 -447l-129 23l344 424zM461 60l344 424l-342 407l125 25l356 -432l-354 -447z"/>
            <glyph unicode="&#xbc;" horiz-adv-x="1706"
                   d="M146 1174l231 192h86v-819h-107v698l-178 -149zM366 30l902 1350l72 -42l-900 -1352zM1050 286v52l420 481h56v-451h124v-82h-124v-286h-98v286h-378zM1186 368h242v286z"/>
            <glyph unicode="&#xbd;" horiz-adv-x="1706"
                   d="M146 1174l231 192h86v-819h-107v698l-178 -149zM366 30l902 1350l72 -42l-900 -1352zM1057 0v22q128 110 256 279q121 159 121 267q0 72 -51 116.5t-123 44.5q-78 0 -183 -96v121q110 74 213 74q68 0 126 -33t91 -90t33 -125q0 -78 -45 -167t-112 -171t-131 -148h360v-94 h-555z"/>
            <glyph unicode="&#xbe;" horiz-adv-x="1706"
                   d="M133 1222v111q91 41 174 41q108 0 186.5 -60t78.5 -165q0 -60 -36 -112.5t-92 -74.5q62 -20 98 -74t36 -120t-36 -119t-95 -82t-123 -29q-90 0 -189 48v110q80 -66 168 -65q66 0 116 38.5t50 104.5q0 74 -58.5 110t-138.5 36q-34 0 -90 -12v112q44 -12 96 -12 q74 0 128 32q55 30 59 98q0 70 -53.5 109t-122.5 39q-74 0 -156 -64zM366 30l902 1350l74 -42l-902 -1352zM1050 286v52l422 481h56v-451h122v-82h-122v-286h-100v286h-378zM1186 368h242v286z"/>
            <glyph unicode="&#xbf;" horiz-adv-x="647"
                   d="M80 -178q0 158 106 315l62 91q80 114 80 200q0 64 -46 125l62 33q86 -85 86 -203q0 -52 -20 -100q-22 -48 -58 -111q-69 -112 -94.5 -166t-25.5 -125q0 -73 36 -127q34 -53 104 -53q106 0 164 96l27 -12l-71 -213q-82 -31 -134 -31q-120 -1 -188 63q-90 78 -90 218z M217 805q0 53 39 92t92 39q54 0 92.5 -38.5t38.5 -92.5t-38.5 -92.5t-92.5 -38.5q-53 0 -92 39t-39 92z"/>
            <glyph unicode="&#xc0;" horiz-adv-x="1345"
                   d="M10 0l590 1366h140l596 -1366h-191l-177 430h-598l-174 -430h-186zM426 551h490l-244 571zM426 1763h190l185 -301h-117z"/>
            <glyph unicode="&#xc1;" horiz-adv-x="1345"
                   d="M10 0l590 1366h140l596 -1366h-191l-177 430h-598l-174 -430h-186zM426 551h490l-244 571zM549 1462l184 301h190l-256 -301h-118z"/>
            <glyph unicode="&#xc2;" horiz-adv-x="1345"
                   d="M10 0l590 1366h140l596 -1366h-191l-177 430h-598l-174 -430h-186zM348 1470l234 307h176l238 -307h-105l-225 190l-211 -190h-107zM426 551h490l-244 571z"/>
            <glyph unicode="&#xc3;" horiz-adv-x="1345"
                   d="M10 0l590 1366h140l596 -1366h-191l-177 430h-598l-174 -430h-186zM360 1507q4 77 40 141t108 64q42 0 84 -12.5t131 -43t110 -30.5q48 0 72 82h88q-40 -211 -162 -211q-36 0 -77 10.5t-98.5 32t-88.5 31.5t-57 10q-42 0 -62 -74h-88zM426 551h490l-244 571z"/>
            <glyph unicode="&#xc4;" horiz-adv-x="1345"
                   d="M10 0l590 1366h140l596 -1366h-191l-177 430h-598l-174 -430h-186zM404 1604q0 40 30 69t70 29q42 0 72 -28t30 -70t-30 -71.5t-72 -29.5q-40 0 -70 29.5t-30 71.5zM426 551h490l-244 571zM738 1604q0 39 29 68.5t69 29.5q42 0 73 -29t31 -69q0 -42 -31.5 -71.5 t-72.5 -29.5q-40 0 -69 30.5t-29 70.5z"/>
            <glyph unicode="&#xc5;" horiz-adv-x="1345"
                   d="M10 0l590 1366h140l596 -1366h-191l-177 430h-598l-174 -430h-186zM426 551h490l-244 571zM502 1603q0 68 51 117t119 49q70 0 121 -48q51 -50 51 -118t-51 -117t-121 -49q-68 0 -119 49t-51 117zM598 1603q0 -30 22 -51t52 -21t53 21t23 51q0 31 -22 51.5t-54 20.5 q-30 0 -52 -21t-22 -51z"/>
            <glyph unicode="&#xc6;" horiz-adv-x="1763"
                   d="M8 0l797 1366h862v-137h-592v-473h575v-138h-575v-481h611v-137h-783v618h-352l-357 -618h-186zM624 756h279v485z"/>
            <glyph unicode="&#xc7;" horiz-adv-x="1313"
                   d="M84 678q0 96 27 191.5t80 181t125 149.5q202 180 482 180q216 0 437 -110v-172q-114 66 -215.5 98.5t-216.5 32.5q-107 0 -210 -43.5t-177 -120.5q-74 -75 -116 -179t-42 -208q0 -150 71 -274t194 -195.5t273 -71.5q218 0 439 127v-160q-74 -42 -188 -80t-205 -38 l-41 -90q55 0 97 -32t42 -85q0 -69 -54.5 -113.5t-125.5 -44.5q-70 0 -164 33l22 64q62 -24 113 -25q46 0 81.5 18.5t35.5 60.5q0 28 -28 45t-60 17q-22 0 -54 -16l-22 18l64 150q-188 0 -340.5 92t-238 251t-85.5 349z"/>
            <glyph unicode="&#xc8;" horiz-adv-x="1005"
                   d="M156 0v1366h756v-137h-584v-469h573v-138h-573v-485h600v-137h-772zM295 1763h190l185 -301h-117z"/>
            <glyph unicode="&#xc9;" horiz-adv-x="1005"
                   d="M156 0v1366h756v-137h-584v-469h573v-138h-573v-485h600v-137h-772zM402 1462l184 301h190l-256 -301h-118z"/>
            <glyph unicode="&#xca;" horiz-adv-x="1005"
                   d="M156 0v1366h756v-137h-584v-469h573v-138h-573v-485h600v-137h-772zM178 1470l234 307h176l238 -307h-105l-225 190l-211 -190h-107z"/>
            <glyph unicode="&#xcb;" horiz-adv-x="1005"
                   d="M156 0v1366h756v-137h-584v-469h573v-138h-573v-485h600v-137h-772zM234 1604q0 40 30 69t70 29q42 0 72 -28t30 -70t-30 -71.5t-72 -29.5q-40 0 -70 29.5t-30 71.5zM568 1604q0 39 29 68.5t69 29.5q42 0 73 -29t31 -69q0 -42 -31.5 -71.5t-72.5 -29.5q-40 0 -69 30.5 t-29 70.5z"/>
            <glyph unicode="&#xcc;" horiz-adv-x="483" d="M39 1769h190l185 -301h-117zM156 0v1366h172v-1366h-172z"/>
            <glyph unicode="&#xcd;" horiz-adv-x="483"
                   d="M86 1462l184 301h190l-256 -301h-118zM156 0v1366h172v-1366h-172z"/>
            <glyph unicode="&#xce;" horiz-adv-x="483"
                   d="M-84 1470l234 307h176l238 -307h-105l-225 190l-211 -190h-107zM156 0v1366h172v-1366h-172z"/>
            <glyph unicode="&#xcf;" horiz-adv-x="483"
                   d="M-26 1604q0 40 30 69t70 29q42 0 72 -28t30 -70t-30 -71.5t-72 -29.5q-40 0 -70 29.5t-30 71.5zM156 0v1366h172v-1366h-172zM308 1604q0 39 29 68.5t69 29.5q42 0 73 -29t31 -69q0 -42 -31.5 -71.5t-72.5 -29.5q-40 0 -69 30.5t-29 70.5z"/>
            <glyph unicode="&#xd0;" horiz-adv-x="1442"
                   d="M20 658v136h136v572h468q270 0 430 -104q142 -90 223 -248t81 -332q0 -120 -42 -234t-121 -208t-183 -152q-156 -88 -424 -88h-432v658h-136zM328 137h210q124 0 220.5 17t177.5 67q246 156 246 461q0 96 -32 191.5t-94 172.5q-62 78 -148 124q-112 60 -336 59h-244v-435 h395v-136h-395v-521z"/>
            <glyph unicode="&#xd1;" horiz-adv-x="1544"
                   d="M156 0v1366h137l925 -1092v1092h170v-1366h-143l-917 1073v-1073h-172zM448 1507q4 77 40 141t108 64q42 0 84 -12.5t131 -43t110 -30.5q48 0 72 82h88q-40 -211 -162 -211q-36 0 -77 10.5t-98.5 32t-88.5 31.5t-57 10q-42 0 -62 -74h-88z"/>
            <glyph unicode="&#xd2;" horiz-adv-x="1546"
                   d="M84 690q0 186 92 345.5t250.5 252t345.5 92.5q188 0 347 -92.5t251 -252t92 -345.5q0 -144 -52 -272t-146.5 -226t-221.5 -152t-270 -54q-192 0 -349.5 94.5t-248 256t-90.5 353.5zM258 666q0 -140 69 -262t188 -194.5t259 -72.5t258 72t186 194q68 123 68 263 q0 239 -139 395q-152 168 -373 168q-108 0 -205 -43.5t-169 -124.5q-142 -155 -142 -395zM559 1763h190l185 -301h-117z"/>
            <glyph unicode="&#xd3;" horiz-adv-x="1546"
                   d="M84 690q0 186 92 345.5t250.5 252t345.5 92.5q188 0 347 -92.5t251 -252t92 -345.5q0 -144 -52 -272t-146.5 -226t-221.5 -152t-270 -54q-192 0 -349.5 94.5t-248 256t-90.5 353.5zM258 666q0 -140 69 -262t188 -194.5t259 -72.5t258 72t186 194q68 123 68 263 q0 239 -139 395q-152 168 -373 168q-108 0 -205 -43.5t-169 -124.5q-142 -155 -142 -395zM615 1462l184 301h190l-256 -301h-118z"/>
            <glyph unicode="&#xd4;" horiz-adv-x="1546"
                   d="M84 690q0 186 92 345.5t250.5 252t345.5 92.5q188 0 347 -92.5t251 -252t92 -345.5q0 -144 -52 -272t-146.5 -226t-221.5 -152t-270 -54q-192 0 -349.5 94.5t-248 256t-90.5 353.5zM258 666q0 -140 69 -262t188 -194.5t259 -72.5t258 72t186 194q68 123 68 263 q0 239 -139 395q-152 168 -373 168q-108 0 -205 -43.5t-169 -124.5q-142 -155 -142 -395zM448 1470l234 307h176l238 -307h-105l-225 190l-211 -190h-107z"/>
            <glyph unicode="&#xd5;" horiz-adv-x="1546"
                   d="M84 690q0 186 92 345.5t250.5 252t345.5 92.5q188 0 347 -92.5t251 -252t92 -345.5q0 -144 -52 -272t-146.5 -226t-221.5 -152t-270 -54q-192 0 -349.5 94.5t-248 256t-90.5 353.5zM258 666q0 -140 69 -262t188 -194.5t259 -72.5t258 72t186 194q68 123 68 263 q0 239 -139 395q-152 168 -373 168q-108 0 -205 -43.5t-169 -124.5q-142 -155 -142 -395zM469 1511q4 77 40 141t108 64q42 0 84 -12.5t131 -43t110 -30.5q48 0 72 82h88q-40 -211 -162 -211q-36 0 -77 10.5t-98.5 32t-88.5 31.5t-57 10q-42 0 -62 -74h-88z"/>
            <glyph unicode="&#xd6;" horiz-adv-x="1546"
                   d="M84 690q0 186 92 345.5t250.5 252t345.5 92.5q188 0 347 -92.5t251 -252t92 -345.5q0 -144 -52 -272t-146.5 -226t-221.5 -152t-270 -54q-192 0 -349.5 94.5t-248 256t-90.5 353.5zM258 666q0 -140 69 -262t188 -194.5t259 -72.5t258 72t186 194q68 123 68 263 q0 239 -139 395q-152 168 -373 168q-108 0 -205 -43.5t-169 -124.5q-142 -155 -142 -395zM504 1606q0 40 30 69t70 29q42 0 72 -28t30 -70t-30 -71.5t-72 -29.5q-40 0 -70 29.5t-30 71.5zM838 1606q0 39 29 68.5t69 29.5q42 0 73 -29t31 -69q0 -42 -31.5 -71.5t-72.5 -29.5 q-40 0 -69 30.5t-29 70.5z"/>
            <glyph unicode="&#xd7;"
                   d="M123 375l325 325l-323 322l61 64l324 -324l324 326l65 -66l-325 -324l323 -323l-61 -61l-324 323l-326 -325z"/>
            <glyph unicode="&#xd8;" horiz-adv-x="1546"
                   d="M84 688q0 187 92 347t250.5 252.5t345.5 92.5q208 0 375 -108l129 152l100 -93l-122 -143q100 -100 154 -230.5t54 -269.5q0 -190 -91 -351.5t-249 -256t-350 -94.5q-236 0 -426 145l-127 -147l-100 88l131 154q-81 94 -123.5 214.5t-42.5 247.5zM258 666 q0 -176 102 -318l678 803q-116 76 -264 76q-222 0 -374 -168q-142 -155 -142 -393zM452 250q141 -113 322 -113q141 0 258.5 71.5t185.5 193.5t68 264q0 242 -143 399z"/>
            <glyph unicode="&#xd9;" horiz-adv-x="1466"
                   d="M156 622v744h172v-698q0 -122 11 -202t54 -152q51 -82 143 -129.5t193 -47.5q114 0 210.5 54t148.5 151q50 104 50 346v678h172v-772q0 -266 -128 -416q-80 -94 -199 -143t-250 -49q-92 0 -183.5 27t-167.5 80t-128 128q-98 143 -98 401zM467 1763h190l185 -301h-117z "/>
            <glyph unicode="&#xda;" horiz-adv-x="1466"
                   d="M156 622v744h172v-698q0 -122 11 -202t54 -152q51 -82 143 -129.5t193 -47.5q114 0 210.5 54t148.5 151q50 104 50 346v678h172v-772q0 -266 -128 -416q-80 -94 -199 -143t-250 -49q-92 0 -183.5 27t-167.5 80t-128 128q-98 143 -98 401zM615 1462l184 301h190l-256 -301 h-118z"/>
            <glyph unicode="&#xdb;" horiz-adv-x="1466"
                   d="M156 622v744h172v-698q0 -122 11 -202t54 -152q51 -82 143 -129.5t193 -47.5q114 0 210.5 54t148.5 151q50 104 50 346v678h172v-772q0 -266 -128 -416q-80 -94 -199 -143t-250 -49q-92 0 -183.5 27t-167.5 80t-128 128q-98 143 -98 401zM409 1470l234 307h176l238 -307 h-105l-225 190l-211 -190h-107z"/>
            <glyph unicode="&#xdc;" horiz-adv-x="1466"
                   d="M156 622v744h172v-698q0 -122 11 -202t54 -152q51 -82 143 -129.5t193 -47.5q114 0 210.5 54t148.5 151q50 104 50 346v678h172v-772q0 -266 -128 -416q-80 -94 -199 -143t-250 -49q-92 0 -183.5 27t-167.5 80t-128 128q-98 143 -98 401zM465 1606q0 40 30 69t70 29 q42 0 72 -28t30 -70t-30 -71.5t-72 -29.5q-40 0 -70 29.5t-30 71.5zM799 1606q0 39 29 68.5t69 29.5q42 0 73 -29t31 -69q0 -42 -31.5 -71.5t-72.5 -29.5q-40 0 -69 30.5t-29 70.5z"/>
            <glyph unicode="&#xdd;" horiz-adv-x="1206"
                   d="M12 1366h220l372 -502l371 502h221l-506 -649v-717h-172v717zM488 1462l184 301h190l-256 -301h-118z"/>
            <glyph unicode="&#xde;" horiz-adv-x="1071"
                   d="M156 0v1366h172v-192h210q198 0 308 -66q81 -50 126.5 -133t45.5 -179q0 -67 -23 -129.5t-66 -112t-103 -83.5q-56 -31 -121 -39t-163 -8h-214v-424h-172zM328 545h170h57q118 1 176 33q54 33 83.5 91.5t29.5 124.5q0 146 -106 218q-62 40 -206 40h-204v-507z"/>
            <glyph unicode="&#xdf;" horiz-adv-x="1032"
                   d="M129 -2v936q-1 180 61 276q34 54 87 93t115.5 58t127.5 19q80 0 149 -20.5t122 -62.5t83 -106q29 -65 29 -147q0 -134 -82 -214q-41 -43 -121 -72q128 -26 194 -124t66 -234q0 -114 -44 -209t-129 -150t-199 -55q-72 0 -152 30v142q70 -36 129 -37q71 0 125 39.5 t82.5 103.5t28.5 136q0 146 -78.5 221t-222.5 75q-6 0 -17.5 -1t-17.5 -1v121h21q118 0 176 45q82 62 82 168t-59 172t-163 66q-74 0 -132 -40t-83 -108q-27 -64 -27 -204v-916h-151z"/>
            <glyph unicode="&#xe0;" horiz-adv-x="891"
                   d="M90 221q0 74 43 138.5t111 99.5t142 52t175 27l41 7v75q0 86 -37 128q-48 54 -133 53q-147 1 -297 -141v149q165 127 313 127q76 0 144 -27t108 -81q50 -67 50 -187v-461q0 -30 6 -46q6 -15 32 -15q14 0 32 10.5t34 24.5t22 18l-18 -116q-97 -68 -166 -68q-72 0 -80 98 q-138 -100 -260 -100q-108 0 -185 64.5t-77 170.5zM200 1321h190l185 -301h-117zM234 232q0 -66 46 -105t113 -39q98 0 203 76v295q-140 -13 -209 -41q-62 -24 -107.5 -74t-45.5 -112z"/>
            <glyph unicode="&#xe1;" horiz-adv-x="891"
                   d="M90 221q0 74 43 138.5t111 99.5t142 52t175 27l41 7v75q0 86 -37 128q-48 54 -133 53q-147 1 -297 -141v149q165 127 313 127q76 0 144 -27t108 -81q50 -67 50 -187v-461q0 -30 6 -46q6 -15 32 -15q14 0 32 10.5t34 24.5t22 18l-18 -116q-97 -68 -166 -68q-72 0 -80 98 q-138 -100 -260 -100q-108 0 -185 64.5t-77 170.5zM234 232q0 -66 46 -105t113 -39q98 0 203 76v295q-140 -13 -209 -41q-62 -24 -107.5 -74t-45.5 -112zM318 1020l184 301h190l-256 -301h-118z"/>
            <glyph unicode="&#xe2;" horiz-adv-x="891"
                   d="M90 221q0 74 43 138.5t111 99.5t142 52t175 27l41 7v75q0 86 -37 128q-48 54 -133 53q-147 1 -297 -141v149q165 127 313 127q76 0 144 -27t108 -81q50 -67 50 -187v-461q0 -30 6 -46q6 -15 32 -15q14 0 32 10.5t34 24.5t22 18l-18 -116q-97 -68 -166 -68q-72 0 -80 98 q-138 -100 -260 -100q-108 0 -185 64.5t-77 170.5zM120 1020l234 307h176l238 -307h-105l-225 190l-211 -190h-107zM234 232q0 -66 46 -105t113 -39q98 0 203 76v295q-140 -13 -209 -41q-62 -24 -107.5 -74t-45.5 -112z"/>
            <glyph unicode="&#xe3;" horiz-adv-x="891"
                   d="M90 221q0 74 43 138.5t111 99.5t142 52t175 27l41 7v75q0 86 -37 128q-48 54 -133 53q-147 1 -297 -141v149q165 127 313 127q76 0 144 -27t108 -81q50 -67 50 -187v-461q0 -30 6 -46q6 -15 32 -15q14 0 32 10.5t34 24.5t22 18l-18 -116q-97 -68 -166 -68q-72 0 -80 98 q-138 -100 -260 -100q-108 0 -185 64.5t-77 170.5zM133 1075q4 77 40 141t108 64q42 0 84 -12.5t131 -43t110 -30.5q48 0 72 82h88q-40 -211 -162 -211q-36 0 -77 10.5t-98.5 32t-88.5 31.5t-57 10q-42 0 -62 -74h-88zM234 232q0 -66 46 -105t113 -39q98 0 203 76v295 q-140 -13 -209 -41q-62 -24 -107.5 -74t-45.5 -112z"/>
            <glyph unicode="&#xe4;" horiz-adv-x="891"
                   d="M90 221q0 74 43 138.5t111 99.5t142 52t175 27l41 7v75q0 86 -37 128q-48 54 -133 53q-147 1 -297 -141v149q165 127 313 127q76 0 144 -27t108 -81q50 -67 50 -187v-461q0 -30 6 -46q6 -15 32 -15q14 0 32 10.5t34 24.5t22 18l-18 -116q-97 -68 -166 -68q-72 0 -80 98 q-138 -100 -260 -100q-108 0 -185 64.5t-77 170.5zM176 1172q0 40 30 69t70 29q42 0 72 -28t30 -70t-30 -71.5t-72 -29.5q-40 0 -70 29.5t-30 71.5zM234 232q0 -66 46 -105t113 -39q98 0 203 76v295q-140 -13 -209 -41q-62 -24 -107.5 -74t-45.5 -112zM510 1172 q0 39 29 68.5t69 29.5q42 0 73 -29t31 -69q0 -42 -31.5 -71.5t-72.5 -29.5q-40 0 -69 30.5t-29 70.5z"/>
            <glyph unicode="&#xe5;" horiz-adv-x="891"
                   d="M90 221q0 74 43 138.5t111 99.5t142 52t175 27l41 7v75q0 86 -37 128q-48 54 -133 53q-147 1 -297 -141v149q165 127 313 127q76 0 144 -27t108 -81q50 -67 50 -187v-461q0 -30 6 -46q6 -15 32 -15q14 0 32 10.5t34 24.5t22 18l-18 -116q-97 -68 -166 -68q-72 0 -80 98 q-138 -100 -260 -100q-108 0 -185 64.5t-77 170.5zM234 232q0 -66 46 -105t113 -39q98 0 203 76v295q-140 -13 -209 -41q-62 -24 -107.5 -74t-45.5 -112zM274 1212q0 68 51 117t119 49q70 0 121 -48q51 -50 51 -118t-51 -117t-121 -49q-68 0 -119 49t-51 117zM370 1212 q0 -30 22 -51t52 -21t53 21t23 51q0 31 -22 51.5t-54 20.5q-30 0 -52 -21t-22 -51z"/>
            <glyph unicode="&#xe6;" horiz-adv-x="1345"
                   d="M90 213q0 195 312 287l163 49v77q-1 88 -29 124q-44 52 -120 51q-132 1 -281 -143v157q177 121 303 121q168 0 234 -121q121 121 258 121q102 0 183 -52t124 -144q43 -96 43 -256h-565q1 -146 29 -224q24 -64 88 -101.5t134 -37.5q176 1 314 115v-148 q-176 -102 -328 -102q-154 0 -294 122q-162 -122 -322 -122q-64 0 -120.5 29.5t-91 82t-34.5 115.5zM234 223q0 -61 48 -98t109 -37q92 0 174 66v302l-81 -26q-104 -34 -177 -81.5t-73 -125.5zM717 578h423q-4 102 -59 170.5t-161 68.5q-100 -6 -149 -71.5t-54 -167.5z"/>
            <glyph unicode="&#xe7;" horiz-adv-x="827"
                   d="M74 475q0 98 34.5 181.5t98 148t147.5 99t180 34.5q114 0 228 -47v-141q-113 54 -209 53q-134 0 -226.5 -93.5t-92.5 -227.5q0 -166 86 -261q94 -100 225 -100q112 0 233 57v-141q-110 -45 -225 -49l-37 -86q115 -10 115 -111q0 -59 -53.5 -98t-114.5 -39q-48 0 -164 30 l25 64q78 -26 124 -26q36 0 64 19t28 54q0 26 -24 42.5t-51 16.5q-23 0 -51 -20l-14 8l61 150q-118 20 -206.5 88t-134.5 171t-46 224z"/>
            <glyph unicode="&#xe8;" horiz-adv-x="946"
                   d="M74 488q0 112 53 215.5t147 168t205 64.5q112 0 208.5 -55t146.5 -152q44 -87 44 -245h-650q2 -100 36.5 -183t105 -131.5t172.5 -48.5q156 0 318 98v-129q-162 -104 -346 -104q-138 0 -237 68t-151 184t-52 250zM240 578h491q-6 108 -69 174q-62 65 -170 65 q-64 0 -119 -33t-90 -88.5t-43 -117.5zM280 1321h190l185 -301h-117z"/>
            <glyph unicode="&#xe9;" horiz-adv-x="946"
                   d="M74 488q0 112 53 215.5t147 168t205 64.5q112 0 208.5 -55t146.5 -152q44 -87 44 -245h-650q2 -100 36.5 -183t105 -131.5t172.5 -48.5q156 0 318 98v-129q-162 -104 -346 -104q-138 0 -237 68t-151 184t-52 250zM240 578h491q-6 108 -69 174q-62 65 -170 65 q-64 0 -119 -33t-90 -88.5t-43 -117.5zM379 1020l184 301h190l-256 -301h-118z"/>
            <glyph unicode="&#xea;" horiz-adv-x="946"
                   d="M74 488q0 112 53 215.5t147 168t205 64.5q112 0 208.5 -55t146.5 -152q44 -87 44 -245h-650q2 -100 36.5 -183t105 -131.5t172.5 -48.5q156 0 318 98v-129q-162 -104 -346 -104q-138 0 -237 68t-151 184t-52 250zM149 1020l234 307h176l238 -307h-105l-225 190l-211 -190 h-107zM240 578h491q-6 108 -69 174q-62 65 -170 65q-64 0 -119 -33t-90 -88.5t-43 -117.5z"/>
            <glyph unicode="&#xeb;" horiz-adv-x="946"
                   d="M74 488q0 112 53 215.5t147 168t205 64.5q112 0 208.5 -55t146.5 -152q44 -87 44 -245h-650q2 -100 36.5 -183t105 -131.5t172.5 -48.5q156 0 318 98v-129q-162 -104 -346 -104q-138 0 -237 68t-151 184t-52 250zM205 1172q0 40 30 69t70 29q42 0 72 -28t30 -70 t-30 -71.5t-72 -29.5q-40 0 -70 29.5t-30 71.5zM240 578h491q-6 108 -69 174q-62 65 -170 65q-64 0 -119 -33t-90 -88.5t-43 -117.5zM539 1172q0 39 29 68.5t69 29.5q42 0 73 -29t31 -69q0 -42 -31.5 -71.5t-72.5 -29.5q-40 0 -69 30.5t-29 70.5z"/>
            <glyph unicode="&#xec;" horiz-adv-x="409" d="M-2 1321h190l185 -301h-117zM129 0v924h151v-924h-151z"/>
            <glyph unicode="&#xed;" horiz-adv-x="409"
                   d="M50 1020l184 301h190l-256 -301h-118zM129 0v924h151v-924h-151z"/>
            <glyph unicode="&#xee;" horiz-adv-x="409"
                   d="M-119 1020l234 307h176l238 -307h-105l-225 190l-211 -190h-107zM129 0v924h151v-924h-151z"/>
            <glyph unicode="&#xef;" horiz-adv-x="409"
                   d="M-63 1172q0 40 30 69t70 29q42 0 72 -28t30 -70t-30 -71.5t-72 -29.5q-40 0 -70 29.5t-30 71.5zM129 0v924h151v-924h-151zM271 1172q0 39 29 68.5t69 29.5q42 0 73 -29t31 -69q0 -42 -31.5 -71.5t-72.5 -29.5q-40 0 -69 30.5t-29 70.5z"/>
            <glyph unicode="&#xf0;" horiz-adv-x="1083"
                   d="M74 467q0 122 63 231t170 173.5t229 64.5q78 0 166 -37q-72 104 -204 205l-256 -162l-48 70l238 147q-96 66 -286 154l-32 14l36 67q230 -74 388 -165l228 145l41 -72l-191 -122q168 -128 258 -264q136 -208 136 -426q0 -106 -37 -203t-109 -168q-64 -62 -150 -97.5 t-174 -35.5q-128 0 -235.5 65.5t-169 176.5t-61.5 239zM234 467q0 -65 21.5 -127t63 -112t97.5 -78.5t122 -28.5q132 0 218 98q94 107 94 242q0 70 -21.5 131.5t-63 108.5t-99.5 73.5t-130 26.5q-86 0 -155 -47.5t-108 -125.5t-39 -161z"/>
            <glyph unicode="&#xf1;" horiz-adv-x="1005"
                   d="M127 0v924h151v-156q63 80 130.5 124t154.5 44q82 0 156 -39q75 -39 115 -109q29 -50 35.5 -104.5t6.5 -136.5v-547h-153v551q0 66 -10.5 111.5t-44.5 77.5q-58 54 -152 54q-142 0 -238 -153v-641h-151zM194 1073q4 77 40 141t108 64q42 0 84 -12.5t131 -43t110 -30.5 q48 0 72 82h88q-40 -211 -162 -211q-36 0 -77 10.5t-98.5 32t-88.5 31.5t-57 10q-42 0 -62 -74h-88z"/>
            <glyph unicode="&#xf2;" horiz-adv-x="1081"
                   d="M74 463q0 126 62 235.5t169 173.5t235 64q126 0 234 -65t171 -174t63 -234q0 -128 -62 -237.5t-170 -174.5t-236 -65t-235 65t-169 174.5t-62 237.5zM234 467q0 -86 39 -166.5t109 -130.5q70 -49 158 -49t159 49.5t111 129.5t40 167q0 86 -40 163.5t-112 123.5 q-72 47 -158 47t-156 -46.5t-110 -124t-40 -163.5zM318 1321h190l185 -301h-117z"/>
            <glyph unicode="&#xf3;" horiz-adv-x="1081"
                   d="M74 463q0 126 62 235.5t169 173.5t235 64q126 0 234 -65t171 -174t63 -234q0 -128 -62 -237.5t-170 -174.5t-236 -65t-235 65t-169 174.5t-62 237.5zM234 467q0 -86 39 -166.5t109 -130.5q70 -49 158 -49t159 49.5t111 129.5t40 167q0 86 -40 163.5t-112 123.5 q-72 47 -158 47t-156 -46.5t-110 -124t-40 -163.5zM412 1020l184 301h190l-256 -301h-118z"/>
            <glyph unicode="&#xf4;" horiz-adv-x="1081"
                   d="M74 463q0 126 62 235.5t169 173.5t235 64q126 0 234 -65t171 -174t63 -234q0 -128 -62 -237.5t-170 -174.5t-236 -65t-235 65t-169 174.5t-62 237.5zM216 1020l234 307h176l238 -307h-105l-225 190l-211 -190h-107zM234 467q0 -86 39 -166.5t109 -130.5q70 -49 158 -49 t159 49.5t111 129.5t40 167q0 86 -40 163.5t-112 123.5q-72 47 -158 47t-156 -46.5t-110 -124t-40 -163.5z"/>
            <glyph unicode="&#xf5;" horiz-adv-x="1081"
                   d="M74 463q0 126 62 235.5t169 173.5t235 64q126 0 234 -65t171 -174t63 -234q0 -128 -62 -237.5t-170 -174.5t-236 -65t-235 65t-169 174.5t-62 237.5zM234 467q0 -86 39 -166.5t109 -130.5q70 -49 158 -49t159 49.5t111 129.5t40 167q0 86 -40 163.5t-112 123.5 q-72 47 -158 47t-156 -46.5t-110 -124t-40 -163.5zM234 1071q4 77 40 141t108 64q42 0 84 -12.5t131 -43t110 -30.5q48 0 72 82h88q-40 -211 -162 -211q-36 0 -77 10.5t-98.5 32t-88.5 31.5t-57 10q-42 0 -62 -74h-88z"/>
            <glyph unicode="&#xf6;" horiz-adv-x="1081"
                   d="M74 463q0 126 62 235.5t169 173.5t235 64q126 0 234 -65t171 -174t63 -234q0 -128 -62 -237.5t-170 -174.5t-236 -65t-235 65t-169 174.5t-62 237.5zM234 467q0 -86 39 -166.5t109 -130.5q70 -49 158 -49t159 49.5t111 129.5t40 167q0 86 -40 163.5t-112 123.5 q-72 47 -158 47t-156 -46.5t-110 -124t-40 -163.5zM272 1172q0 40 30 69t70 29q42 0 72 -28t30 -70t-30 -71.5t-72 -29.5q-40 0 -70 29.5t-30 71.5zM606 1172q0 39 29 68.5t69 29.5q42 0 73 -29t31 -69q0 -42 -31.5 -71.5t-72.5 -29.5q-40 0 -69 30.5t-29 70.5z"/>
            <glyph unicode="&#xf7;"
                   d="M47 654v88h932v-88h-932zM432 322q0 32 24 57t56 25q34 0 58 -25t24 -57q0 -34 -24.5 -58t-57.5 -24q-32 0 -56 24t-24 58zM432 1075q0 32 24 56t58 24q33 0 56.5 -23.5t23.5 -56.5q0 -34 -23.5 -57.5t-56.5 -23.5q-34 0 -58 24t-24 57z"/>
            <glyph unicode="&#xf8;" horiz-adv-x="1081"
                   d="M30 60l132 122q-90 124 -90 281q0 125 63 234.5t171 174t234 64.5q172 0 304 -112l133 124l82 -80l-137 -130q86 -124 86 -275q0 -128 -62 -237.5t-170 -174.5t-236 -65q-158 0 -298 110l-128 -120zM232 467q0 -101 44 -183l459 443q-87 76 -195 76q-87 0 -157.5 -47.5 t-110.5 -124.5t-40 -164zM352 194q84 -74 186 -73q89 0 160.5 49.5t110.5 130t39 166.5q0 88 -41 168z"/>
            <glyph unicode="&#xf9;" horiz-adv-x="1007"
                   d="M129 350v572h151v-522q0 -120 34 -179q26 -44 71 -68t97 -24q74 0 142 40.5t103 106.5v646h151v-922h-151l4 160q-50 -78 -125.5 -126t-163.5 -48q-102 0 -173 49t-105.5 132t-34.5 183zM250 1321h190l185 -301h-117z"/>
            <glyph unicode="&#xfa;" horiz-adv-x="1007"
                   d="M129 350v572h151v-522q0 -120 34 -179q26 -44 71 -68t97 -24q74 0 142 40.5t103 106.5v646h151v-922h-151l4 160q-50 -78 -125.5 -126t-163.5 -48q-102 0 -173 49t-105.5 132t-34.5 183zM375 1020l184 301h190l-256 -301h-118z"/>
            <glyph unicode="&#xfb;" horiz-adv-x="1007"
                   d="M129 350v572h151v-522q0 -120 34 -179q26 -44 71 -68t97 -24q74 0 142 40.5t103 106.5v646h151v-922h-151l4 160q-50 -78 -125.5 -126t-163.5 -48q-102 0 -173 49t-105.5 132t-34.5 183zM180 1020l234 307h176l238 -307h-105l-225 190l-211 -190h-107z"/>
            <glyph unicode="&#xfc;" horiz-adv-x="1007"
                   d="M129 350v572h151v-522q0 -120 34 -179q26 -44 71 -68t97 -24q74 0 142 40.5t103 106.5v646h151v-922h-151l4 160q-50 -78 -125.5 -126t-163.5 -48q-102 0 -173 49t-105.5 132t-34.5 183zM236 1172q0 40 30 69t70 29q42 0 72 -28t30 -70t-30 -71.5t-72 -29.5 q-40 0 -70 29.5t-30 71.5zM570 1172q0 39 29 68.5t69 29.5q42 0 73 -29t31 -69q0 -42 -31.5 -71.5t-72.5 -29.5q-40 0 -69 30.5t-29 70.5z"/>
            <glyph unicode="&#xfd;" horiz-adv-x="915"
                   d="M14 -488l354 682l-348 730h162l270 -564l300 564h149l-731 -1412h-156zM330 1018l184 301h190l-256 -301h-118z"/>
            <glyph unicode="&#xfe;" horiz-adv-x="1028"
                   d="M129 -494v1864h151v-508q116 76 216 76q135 0 239.5 -65t161.5 -177t57 -246q0 -127 -61 -233.5t-167 -167.5t-232 -61q-104 0 -214 61v-543h-151zM280 182q100 -62 185 -61q86 0 163 43.5t122.5 118.5t45.5 163q0 99 -40 180.5t-116 129t-177 47.5q-85 1 -183 -49v-572z "/>
            <glyph unicode="&#xff;" horiz-adv-x="915"
                   d="M14 -488l354 682l-348 730h162l270 -564l300 564h149l-731 -1412h-156zM191 1172q0 40 30 69t70 29q42 0 72 -28t30 -70t-30 -71.5t-72 -29.5q-40 0 -70 29.5t-30 71.5zM525 1172q0 39 29 68.5t69 29.5q42 0 73 -29t31 -69q0 -42 -31.5 -71.5t-72.5 -29.5q-40 0 -69 30.5 t-29 70.5z"/>
            <glyph unicode="&#x152;" horiz-adv-x="1806"
                   d="M98 704q0 122 50 238t138 207t200 143q158 74 370 74h852v-137h-592v-471h578v-138h-578v-483h627v-137h-903q-124 0 -229 20.5t-195 71.5q-154 90 -236 256q-82 164 -82 356zM274 702q0 -164 68 -296t205 -210q114 -62 315 -61h84v1094h-86q-184 0 -309 -70 q-81 -44 -144 -115.5t-98 -160.5t-35 -181z"/>
            <glyph unicode="&#x153;" horiz-adv-x="1644"
                   d="M74 469q0 124 60 232t165 171.5t229 63.5q226 0 367 -194q104 194 307 194q97 0 181.5 -46t134.5 -128q34 -56 46.5 -124t14.5 -154h-602v-44q0 -90 35.5 -162t102.5 -114.5t157 -42.5q138 0 305 100v-135q-159 -100 -336 -100q-217 0 -344 196q-86 -106 -164.5 -151 t-204.5 -45q-99 0 -183 37t-145 104.5t-93.5 156t-32.5 185.5zM234 469q0 -149 80 -243q86 -104 220 -105q62 0 121 27.5t97 74.5q74 90 74 248q0 90 -37 165.5t-106 120t-159 44.5q-130 -1 -210 -95q-36 -42 -58 -108.5t-22 -128.5zM981 576h453q-10 97 -56 155 q-64 86 -170 86q-56 0 -105 -28.5t-79 -76.5q-32 -46 -43 -136z"/>
            <glyph unicode="&#x178;" horiz-adv-x="1206"
                   d="M12 1366h220l372 -502l371 502h221l-506 -649v-717h-172v717zM336 1604q0 40 30 69t70 29q42 0 72 -28t30 -70t-30 -71.5t-72 -29.5q-40 0 -70 29.5t-30 71.5zM670 1604q0 39 29 68.5t69 29.5q42 0 73 -29t31 -69q0 -42 -31.5 -71.5t-72.5 -29.5q-40 0 -69 30.5t-29 70.5 z"/>
            <glyph unicode="&#x2c6;" d="M188 1020l234 307h176l238 -307h-105l-225 190l-211 -190h-107z"/>
            <glyph unicode="&#x2dc;"
                   d="M170 1073q4 77 40 141t108 64q42 0 84 -12.5t131 -43t110 -30.5q48 0 72 82h88q-40 -211 -162 -211q-36 0 -77 10.5t-98.5 32t-88.5 31.5t-57 10q-42 0 -62 -74h-88z"/>
            <glyph unicode="&#x2000;" horiz-adv-x="888"/>
            <glyph unicode="&#x2001;" horiz-adv-x="1777"/>
            <glyph unicode="&#x2002;" horiz-adv-x="888"/>
            <glyph unicode="&#x2003;" horiz-adv-x="1777"/>
            <glyph unicode="&#x2004;" horiz-adv-x="592"/>
            <glyph unicode="&#x2005;" horiz-adv-x="444"/>
            <glyph unicode="&#x2006;" horiz-adv-x="296"/>
            <glyph unicode="&#x2007;" horiz-adv-x="296"/>
            <glyph unicode="&#x2008;" horiz-adv-x="222"/>
            <glyph unicode="&#x2009;" horiz-adv-x="355"/>
            <glyph unicode="&#x200a;" horiz-adv-x="98"/>
            <glyph unicode="&#x2010;" horiz-adv-x="530" d="M0 422v146h530v-146h-530z"/>
            <glyph unicode="&#x2011;" horiz-adv-x="530" d="M0 422v146h530v-146h-530z"/>
            <glyph unicode="&#x2012;" horiz-adv-x="530" d="M0 422v146h530v-146h-530z"/>
            <glyph unicode="&#x2013;" horiz-adv-x="1091" d="M90 422v146h912v-146h-912z"/>
            <glyph unicode="&#x2014;" horiz-adv-x="1306" d="M-20 422v146h1347v-146h-1347z"/>
            <glyph unicode="&#x2018;" horiz-adv-x="575"
                   d="M135 1098q0 82 41.5 142.5t109 95t148.5 42.5l4 -26q-52 -28 -84 -72t-32 -96q112 -22 112 -134q0 -54 -41 -92t-96 -38q-71 0 -116.5 53t-45.5 125z"/>
            <glyph unicode="&#x2019;" horiz-adv-x="575"
                   d="M135 948q50 27 83.5 70.5t33.5 95.5q-112 26 -112 136q0 54 41 91t95 37q72 0 117 -53t45 -125q0 -81 -41 -142t-109.5 -95.5t-150.5 -42.5z"/>
            <glyph unicode="&#x201a;" horiz-adv-x="575"
                   d="M135 -168q50 26 83.5 70t33.5 96q-112 26 -112 135q0 54 41 91.5t95 37.5q72 0 117 -53t45 -125q0 -82 -41.5 -143t-110.5 -95.5t-149 -41.5z"/>
            <glyph unicode="&#x201c;" horiz-adv-x="973"
                   d="M137 1098q0 82 41.5 142.5t109 95t148.5 42.5l4 -26q-116 -64 -116 -168q112 -22 112 -134q0 -54 -41 -92t-96 -38q-71 0 -116.5 53t-45.5 125zM534 1098q0 82 42 142.5t109.5 95t148.5 42.5l4 -26q-116 -64 -117 -168q113 -22 113 -134q0 -54 -42 -92t-96 -38 q-71 0 -116.5 53t-45.5 125z"/>
            <glyph unicode="&#x201d;" horiz-adv-x="973"
                   d="M137 948q50 27 83.5 70.5t33.5 95.5q-112 26 -112 136q0 54 41 91t95 37q72 0 117 -53t45 -125q0 -81 -41 -142t-109.5 -95.5t-149.5 -42.5zM534 948q50 27 84 70.5t34 95.5q-114 26 -114 136q0 54 41.5 91t96.5 37q46 0 83 -24.5t58 -65.5t21 -88q0 -80 -42 -141.5 t-110.5 -96t-149.5 -42.5z"/>
            <glyph unicode="&#x201e;" horiz-adv-x="973"
                   d="M137 -168q50 26 83.5 70t33.5 96q-112 26 -112 135q0 54 41 91.5t95 37.5q72 0 117 -53t45 -125q0 -80 -41 -141t-110 -96.5t-149 -42.5zM534 -168q50 26 84 70t34 96q-114 26 -114 135q0 54 41 91.5t97 37.5q46 0 83 -25t58 -65.5t21 -87.5q0 -80 -42 -141t-111 -96.5 t-149 -42.5z"/>
            <glyph unicode="&#x2022;" horiz-adv-x="1366"
                   d="M402 696q0 76 38 142t103 104.5t141 38.5t140.5 -39.5t102 -105.5t37.5 -140q0 -75 -37.5 -141.5t-102 -105.5t-140.5 -39t-141 38.5t-103 105t-38 142.5z"/>
            <glyph unicode="&#x2026;" horiz-adv-x="1526"
                   d="M123 116q0 54 38.5 93t92.5 39t92.5 -39t38.5 -93q0 -53 -39 -91.5t-92 -38.5q-35 0 -65.5 17.5t-48 47.5t-17.5 65zM631 116q0 54 39.5 93t93.5 39t92.5 -39t38.5 -93q0 -53 -39 -91.5t-92 -38.5q-54 0 -93.5 38.5t-39.5 91.5zM1140 116q0 54 39 93t93 39t92.5 -39 t38.5 -93q0 -53 -39 -91.5t-92 -38.5q-36 0 -66 17.5t-48 47.5t-18 65z"/>
            <glyph unicode="&#x202f;" horiz-adv-x="355"/>
            <glyph unicode="&#x2039;" horiz-adv-x="635" d="M68 484l356 432l129 -25l-346 -407l344 -424l-129 -23z"/>
            <glyph unicode="&#x203a;" horiz-adv-x="635" d="M82 891l129 25l357 -432l-355 -447l-129 23l344 424z"/>
            <glyph unicode="&#x205f;" horiz-adv-x="444"/>
            <glyph unicode="&#x2122;" horiz-adv-x="1747"
                   d="M20 1272v94h701v-94h-291v-725h-121v725h-289zM848 547v819h120l277 -348l285 348h110v-819h-120v637l-275 -338l-274 338v-637h-123z"/>
            <glyph unicode="&#x25fc;" horiz-adv-x="922" d="M0 0v922h922v-922h-922z"/>
            </font>
</defs>
</svg>
